<?xml version="1.0" ?><!DOCTYPE svg  PUBLIC '-//W3C//DTD SVG 1.1//EN'  'http://www.w3.org/Graphics/SVG/1.1/DTD/svg11.dtd'><svg enable-background="new 0 0 24 24" height="24px" id="Layer_1" version="1.1" viewBox="0 0 24 24" width="24px" xml:space="preserve" xmlns="http://www.w3.org/2000/svg" xmlns:xlink="http://www.w3.org/1999/xlink"><path d="M23.4,5c-0.1-0.2-0.4-0.2-0.6-0.1c-0.2,0.1-0.5,0.2-0.7,0.3c0.3-0.4,0.6-0.9,0.8-1.5c0.1-0.2,0-0.4-0.2-0.5s-0.4-0.1-0.5,0  c-0.8,0.5-1.6,0.8-2.5,1c-0.9-0.9-2.2-1.4-3.5-1.4c-2.8,0-5,2.2-5,4.9c0,0.2,0,0.3,0,0.5C8,7.8,5,6.2,2.9,3.7  C2.8,3.6,2.6,3.5,2.5,3.5c-0.2,0-0.3,0.1-0.4,0.2C1.7,4.5,1.4,5.4,1.4,6.2c0,1,0.3,2,0.9,2.9C2.3,9.1,2.2,9,2.1,9  c-0.1-0.1-0.3,0-0.5,0C1.5,9.1,1.4,9.3,1.4,9.4c0,1.6,0.8,3.1,2,4c-0.1,0-0.2,0.1-0.3,0.2C3,13.7,2.9,13.9,3,14  c0.5,1.6,1.8,2.8,3.4,3.2c-1.6,0.9-3.5,1.3-5.4,1.1c-0.2,0-0.4,0.1-0.5,0.3c-0.1,0.2,0,0.4,0.2,0.6c2.2,1.4,4.6,2.1,7.2,2.1  c8.4,0,13.3-6.7,13.3-13.1c0-0.1,0-0.2,0-0.3c0.8-0.6,1.6-1.4,2.2-2.3C23.5,5.4,23.5,5.1,23.4,5z"/></svg>